<svg width="209" height="128" viewBox="0 0 209 128" fill="none" xmlns="http://www.w3.org/2000/svg">
<path d="M61.1924 52.6222C53.3654 44.3733 57.6347 20.6933 66.1731 12.0888C74.7116 3.48438 87.5193 5.47549 95.702 8.60438C103.885 11.7333 111.356 19.9822 107.442 31.9999C103.529 44.0177 88.5866 52.6933 80.4039 59.0222C72.2212 65.351 69.0193 60.871 61.1924 52.6222Z" fill="#FF68F6" stroke="black" stroke-width="4"/>
<path d="M78.2693 59.0222C88.5866 47.9288 111.356 43.4488 120.962 46.9333C130.567 50.4177 144.442 71.1822 134.481 85.3333C124.519 99.4844 117.048 101.404 102.462 96.711C87.875 92.0177 78.625 74.3822 74 68.9777C69.375 63.5733 67.952 70.1155 78.2693 59.0222Z" fill="#FF68F6" stroke="black" stroke-width="4"/>
<path d="M64.7501 68.2667C57.279 75.6622 34.154 79.7156 22.0578 79.6445C9.96165 79.5733 8.53857 70.8267 8.53857 57.6C8.53857 44.3733 18.8559 32.0711 33.4424 29.8667C48.029 27.6622 63.4693 49.28 69.0194 54.7556C71.8655 57.5289 72.2213 60.8711 64.7501 68.2667Z" fill="#FF68F6" stroke="black" stroke-width="4"/>
<path d="M74.0001 68.9777C77.9136 75.0933 82.1828 90.24 83.9616 100.267C85.7405 110.293 86.452 119.04 74.0001 121.6C61.5482 124.16 47.3174 113.707 43.4039 102.4C39.4905 91.0933 51.5866 75.3777 61.9039 69.6888C72.2212 64 70.0866 62.8622 74.0001 68.9777Z" fill="#FF68F6" stroke="black" stroke-width="4"/>
<path d="M83.2499 63.9999C83.9614 70.3288 78.2691 74.3822 70.4422 73.9555C62.6153 73.5288 56.923 70.8266 57.6345 63.9999C58.346 57.1733 66.173 52.6222 73.9999 53.3333C77.2018 53.6177 82.5384 57.6711 83.2499 63.9999Z" fill="#FF5200" stroke="black" stroke-width="4"/>
<path d="M173.221 21.7889C169.995 18.3734 171.755 8.56839 175.274 5.00561C178.793 1.44283 184.072 2.26727 187.445 3.56283C190.817 4.85838 193.897 8.27394 192.284 13.2501C190.671 18.2262 184.512 21.8184 181.139 24.4389C177.767 27.0595 176.447 25.2045 173.221 21.7889Z" fill="#FF68F6" stroke="black" stroke-width="4"/>
<path d="M180.26 24.4388C184.512 19.8455 193.897 17.9905 197.856 19.4333C201.815 20.8761 207.534 29.4738 203.428 35.3333C199.322 41.1927 196.243 41.9877 190.231 40.0444C184.219 38.1011 180.406 30.7988 178.5 28.5611C176.594 26.3233 176.007 29.0322 180.26 24.4388Z" fill="#FF68F6" stroke="black" stroke-width="4"/>
<path d="M174.688 28.2666C171.608 31.3288 162.077 33.0072 157.091 32.9777C152.106 32.9483 151.519 29.3266 151.519 23.8499C151.519 18.3733 155.772 13.2794 161.784 12.3666C167.796 11.4538 174.16 20.4049 176.447 22.6722C177.62 23.8205 177.767 25.2044 174.688 28.2666Z" fill="#FF68F6" stroke="black" stroke-width="4"/>
<path d="M178.5 28.5611C180.113 31.0934 181.873 37.365 182.606 41.5167C183.339 45.6684 183.632 49.29 178.5 50.35C173.368 51.41 167.503 47.0817 165.89 42.4C164.277 37.7184 169.262 31.2111 173.515 28.8556C177.767 26.5 176.887 26.0289 178.5 28.5611Z" fill="#FF68F6" stroke="black" stroke-width="4"/>
<path d="M182.312 26.4999C182.606 29.1204 180.26 30.7988 177.034 30.6221C173.808 30.4454 171.461 29.3265 171.755 26.4999C172.048 23.6732 175.274 21.7888 178.5 22.0832C179.82 22.201 182.019 23.8793 182.312 26.4999Z" fill="#FF5200" stroke="black" stroke-width="4"/>
</svg>
