<svg width="124" height="77" viewBox="0 0 124 77" fill="none" xmlns="http://www.w3.org/2000/svg">
<path d="M36.7978 31.6556C32.0911 26.6934 34.6584 12.4484 39.793 7.27225C44.9276 2.09614 52.6296 3.29391 57.5502 5.17614C62.4709 7.05836 66.9637 12.0206 64.6103 19.25C62.257 26.4795 53.2714 31.6984 48.3507 35.5056C43.43 39.3128 41.5046 36.6178 36.7978 31.6556Z" fill="#FF68F6" stroke="black" stroke-width="4"/>
<path d="M47.0672 35.5056C53.2715 28.8323 66.9638 26.1373 72.7403 28.2334C78.5167 30.3295 86.8605 42.8206 80.8701 51.3334C74.8797 59.8462 70.3869 61.0012 61.6153 58.1778C52.8436 55.3545 47.2811 44.7456 44.4999 41.4945C41.7186 38.2434 40.8629 42.179 47.0672 35.5056Z" fill="#FF68F6" stroke="black" stroke-width="4"/>
<path d="M38.9377 41.0666C34.4449 45.5155 20.5386 47.9539 13.2646 47.9111C5.99054 47.8683 5.13477 42.6066 5.13477 34.65C5.13477 26.6933 11.3391 19.2927 20.1107 17.9666C28.8824 16.6405 38.1675 29.645 41.505 32.9389C43.2165 34.6072 43.4305 36.6178 38.9377 41.0666Z" fill="#FF68F6" stroke="black" stroke-width="4"/>
<path d="M44.4998 41.4943C46.8532 45.1732 49.4205 54.2849 50.4902 60.3165C51.5599 66.3482 51.9878 71.6099 44.4998 73.1499C37.0118 74.6899 28.4541 68.4015 26.1008 61.5999C23.7474 54.7982 31.0214 45.3443 37.2258 41.9221C43.4301 38.4999 42.1464 37.8154 44.4998 41.4943Z" fill="#FF68F6" stroke="black" stroke-width="4"/>
<path d="M50.0625 38.4999C50.4904 42.3071 47.0673 44.7455 42.3606 44.4888C37.6539 44.2321 34.2308 42.6066 34.6587 38.4999C35.0866 34.3932 39.7933 31.6555 44.5 32.0832C46.4255 32.2543 49.6346 34.6927 50.0625 38.4999Z" fill="#FF5200" stroke="black" stroke-width="4"/>
<g clip-path="url(#clip0_1204_10917)">
<path d="M103.471 12.7444C101.62 10.7466 102.63 5.01164 104.649 2.92775C106.668 0.843864 109.697 1.32609 111.632 2.08386C113.567 2.84164 115.334 4.83942 114.409 7.74998C113.483 10.6605 109.949 12.7616 108.014 14.2944C106.079 15.8272 105.322 14.7422 103.471 12.7444Z" fill="#FF68F6" stroke="black" stroke-width="4"/>
<path d="M107.51 14.2944C109.95 11.6077 115.334 10.5227 117.606 11.3666C119.877 12.2105 123.159 17.2394 120.803 20.6666C118.447 24.0938 116.68 24.5588 113.231 23.4222C109.781 22.2855 107.594 18.0144 106.5 16.7055C105.406 15.3966 105.07 16.9811 107.51 14.2944Z" fill="#FF68F6" stroke="black" stroke-width="4"/>
<path d="M104.312 16.5334C102.545 18.3245 97.0767 19.3062 94.2162 19.2889C91.3556 19.2717 91.019 17.1534 91.019 13.9501C91.019 10.7467 93.4589 7.76727 96.9085 7.23339C100.358 6.6995 104.009 11.9351 105.322 13.2612C105.995 13.9328 106.079 14.7423 104.312 16.5334Z" fill="#FF68F6" stroke="black" stroke-width="4"/>
<path d="M106.5 16.7056C107.426 18.1868 108.435 21.8551 108.856 24.2834C109.277 26.7118 109.445 28.8301 106.5 29.4501C103.556 30.0701 100.19 27.5384 99.2647 24.8001C98.3392 22.0618 101.2 18.2556 103.64 16.8779C106.08 15.5001 105.575 15.2245 106.5 16.7056Z" fill="#FF68F6" stroke="black" stroke-width="4"/>
<path d="M108.688 15.4999C108.856 17.0327 107.51 18.0144 105.659 17.9111C103.808 17.8077 102.462 17.1533 102.63 15.4999C102.798 13.8466 104.649 12.7444 106.5 12.9166C107.257 12.9855 108.519 13.9672 108.688 15.4999Z" fill="#FF5200" stroke="black" stroke-width="4"/>
</g>
<defs>
<clipPath id="clip0_1204_10917">
<rect width="35" height="31" fill="white" transform="translate(89)"/>
</clipPath>
</defs>
</svg>
