<svg width="130" height="126" viewBox="0 0 130 126" fill="none" xmlns="http://www.w3.org/2000/svg">
<g clip-path="url(#clip0_1204_2741)">
<path d="M35.5352 26.5049C33.9014 23.8952 33.3704 17.004 33.493 12.6409C33.6155 8.27776 34.4324 5.7496 39.6197 3.26222C44.807 0.774846 50.5253 2.32436 55.1408 3.66999C59.7563 5.01562 63.3098 6.40203 62.0845 11.8253C60.8591 17.2486 57.3056 24.2214 54.7324 28.136C52.1591 32.0506 37.169 29.1147 35.5352 26.5049Z" fill="#FF5200" stroke="black" stroke-width="4"/>
<path d="M55.9577 27.7282C56.8972 25.2409 58.8169 20.4292 64.9436 16.3108C71.0704 12.1923 74.6239 13.0894 76.7887 14.6797C80.3014 17.2894 84.0591 23.1205 83.7324 29.7671C83.4465 35.6389 82.6296 36.4545 77.6056 39.1457C71.6831 42.3263 64.0042 40.002 60.4507 39.5535C56.8972 39.1049 55.0183 30.2156 55.9577 27.7282Z" fill="#FF5200" stroke="black" stroke-width="4"/>
<path d="M57.1831 42.8155C60.7366 40.2058 65.2296 40.8174 73.1127 42C80.9958 43.1825 85.4888 45.7107 83.7324 52.1941C81.9761 58.6776 79.5254 61.7359 73.9296 65.2427C68.3338 68.7495 63.7183 68.9534 59.2254 66.0582C54.7324 63.1631 54.2014 56.0272 53.0986 53.4174C51.9958 50.8077 53.6296 45.4252 57.1831 42.8155Z" fill="#FF5200" stroke="black" stroke-width="4"/>
<path d="M51.8732 52.602C54.038 57.4544 58.531 65.2836 57.1831 71.767C55.8352 78.2505 43.2958 80.901 37.5775 80.7379C31.8592 80.5748 26.6718 76.4156 24.9155 71.767C23.1592 67.1185 29.9394 56.435 31.4507 54.2331C32.962 52.0311 49.7085 47.7496 51.8732 52.602Z" fill="#FF5200" stroke="black" stroke-width="4"/>
<path d="M32.6761 50.971C32.1451 55.171 29.0409 61.9807 21.648 65.2428C15.1128 68.138 11.9677 65.8137 7.76064 60.7574C3.5536 55.7011 1.22543 47.872 6.12684 42.8156C11.0282 37.7593 19.3198 39.5943 24.0987 39.5535C28.8775 39.5127 33.2071 46.771 32.6761 50.971Z" fill="#FF5200" stroke="black" stroke-width="4"/>
<path d="M24.5071 40.3689C19.1973 39.6757 11.8452 37.2699 7.76067 32.2136C3.67616 27.1572 6.94376 19.2058 10.6198 14.6796C14.2959 10.1534 19.8917 7.09511 24.5071 8.15531C29.1226 9.2155 33.0846 20.5514 35.1269 24.0582C37.1691 27.565 29.817 41.0621 24.5071 40.3689Z" fill="#FF5200" stroke="black" stroke-width="4"/>
<path d="M58.8168 29.3592C65.352 34.7825 60.859 46.363 55.1407 52.1941C49.4224 58.0252 34.4323 56.8427 28.9999 53.4174C23.5675 49.9922 23.5675 35.7611 24.5069 31.398C25.4464 27.0349 32.5943 24.0582 36.352 23.2427C40.314 22.3863 52.2816 23.9359 58.8168 29.3592Z" fill="#00E3FF" stroke="black" stroke-width="4"/>
</g>
<g clip-path="url(#clip1_1204_2741)">
<path d="M104.563 97.2525C103.756 95.9476 103.493 92.502 103.554 90.3204C103.615 88.1389 104.018 86.8748 106.582 85.6311C109.146 84.3874 111.972 85.1622 114.254 85.835C116.535 86.5078 118.291 87.201 117.685 89.9127C117.08 92.6243 115.323 96.1107 114.052 98.068C112.78 100.025 105.371 98.5573 104.563 97.2525Z" fill="#FF5200" stroke="black" stroke-width="4"/>
<path d="M114.657 97.8642C115.121 96.6206 116.07 94.2147 119.098 92.1555C122.127 90.0963 123.883 90.5448 124.953 91.34C126.689 92.6448 128.546 95.5604 128.385 98.8837C128.244 101.82 127.84 102.227 125.357 103.573C122.429 105.163 118.634 104.001 116.878 103.777C115.121 103.553 114.193 99.1079 114.657 97.8642Z" fill="#FF5200" stroke="black" stroke-width="4"/>
<path d="M115.263 105.408C117.019 104.103 119.24 104.409 123.136 105C127.032 105.591 129.253 106.855 128.385 110.097C127.517 113.339 126.306 114.868 123.54 116.621C120.774 118.375 118.493 118.477 116.272 117.029C114.052 115.582 113.789 112.014 113.244 110.709C112.699 109.404 113.507 106.713 115.263 105.408Z" fill="#FF5200" stroke="black" stroke-width="4"/>
<path d="M112.639 110.301C113.709 112.727 115.929 116.642 115.263 119.884C114.597 123.125 108.399 124.451 105.573 124.369C102.747 124.287 100.183 122.208 99.3146 119.884C98.4465 117.559 101.798 112.218 102.545 111.117C103.292 110.016 111.569 107.875 112.639 110.301Z" fill="#FF5200" stroke="black" stroke-width="4"/>
<path d="M103.15 109.485C102.888 111.585 101.354 114.99 97.6995 116.621C94.4695 118.069 92.915 116.907 90.8357 114.379C88.7564 111.851 87.6056 107.936 90.0282 105.408C92.4507 102.88 96.5488 103.797 98.9108 103.777C101.273 103.756 103.413 107.385 103.15 109.485Z" fill="#FF5200" stroke="black" stroke-width="4"/>
<path d="M99.1126 104.185C96.4882 103.838 92.8544 102.635 90.8357 100.107C88.8169 97.5787 90.4319 93.603 92.2488 91.3399C94.0657 89.0768 96.8314 87.5477 99.1126 88.0778C101.394 88.6079 103.352 94.2758 104.361 96.0292C105.371 97.7826 101.737 104.531 99.1126 104.185Z" fill="#FF5200" stroke="black" stroke-width="4"/>
<path d="M116.07 98.6797C119.3 101.391 117.08 107.182 114.253 110.097C111.427 113.013 104.018 112.421 101.333 110.709C98.6483 108.996 98.6483 101.881 99.1126 99.6991C99.5769 97.5176 103.11 96.0292 104.967 95.6214C106.925 95.1933 112.84 95.9681 116.07 98.6797Z" fill="#00E3FF" stroke="black" stroke-width="4"/>
</g>
<defs>
<clipPath id="clip0_1204_2741">
<rect width="87" height="84" fill="white"/>
</clipPath>
<clipPath id="clip1_1204_2741">
<rect width="43" height="42" fill="white" transform="translate(87 84)"/>
</clipPath>
</defs>
</svg>
