<svg width="96" height="95" viewBox="0 0 96 95" fill="none" xmlns="http://www.w3.org/2000/svg">
<g clip-path="url(#clip0_1199_8174)">
<path d="M21.648 16.4078C20.6527 14.7923 20.3292 10.5262 20.4038 7.82526C20.4785 5.12429 20.9761 3.55924 24.1362 2.01944C27.2963 0.479631 30.7799 1.43885 33.5916 2.27186C36.4034 3.10487 38.5682 3.96313 37.8217 7.32041C37.0752 10.6777 34.9104 14.9942 33.3428 17.4175C31.7752 19.8408 22.6433 18.0233 21.648 16.4078Z" fill="#FF5200" stroke="black" stroke-width="4"/>
<path d="M34.0893 17.1651C34.6616 15.6253 35.8311 12.6467 39.5635 10.0971C43.2959 7.54763 45.4607 8.10297 46.7795 9.08743C48.9194 10.703 51.2086 14.3127 51.0095 18.4272C50.8354 22.0622 50.3377 22.567 47.2771 24.2331C43.6692 26.202 38.9912 24.7632 36.8264 24.4855C34.6616 24.2078 33.517 18.7049 34.0893 17.1651Z" fill="#FF5200" stroke="black" stroke-width="4"/>
<path d="M34.8357 26.5047C37.0005 24.8892 39.7376 25.2679 44.5399 25.9999C49.3423 26.7319 52.0794 28.297 51.0094 32.3106C49.9395 36.3242 48.4465 38.2174 45.0376 40.3882C41.6287 42.5591 38.8169 42.6853 36.0799 40.8931C33.3428 39.1009 33.0193 34.6834 32.3475 33.0679C31.6756 31.4523 32.6709 28.1203 34.8357 26.5047Z" fill="#FF5200" stroke="black" stroke-width="4"/>
<path d="M31.6006 32.5632C32.9194 35.5671 35.6565 40.4137 34.8354 44.4273C34.0142 48.4409 26.3753 50.0817 22.8917 49.9807C19.4081 49.8797 16.248 47.305 15.1781 44.4273C14.1081 41.5496 18.2386 34.936 19.1593 33.5729C20.08 32.2098 30.2818 29.5593 31.6006 32.5632Z" fill="#FF5200" stroke="black" stroke-width="4"/>
<path d="M19.9061 31.5535C19.5827 34.1535 17.6916 38.3691 13.1878 40.3885C9.20661 42.1807 7.29065 40.7419 4.72774 37.6118C2.16483 34.4817 0.74652 29.6351 3.73244 26.505C6.71835 23.3749 11.7695 24.5108 14.6808 24.4856C17.5921 24.4603 20.2296 28.9535 19.9061 31.5535Z" fill="#FF5200" stroke="black" stroke-width="4"/>
<path d="M14.9297 24.9902C11.695 24.561 7.21611 23.0717 4.72784 19.9416C2.23958 16.8115 4.23019 11.8892 6.46963 9.08725C8.70906 6.28531 12.118 4.39211 14.9297 5.04842C17.7415 5.70473 20.1551 12.7222 21.3992 14.8931C22.6433 17.0639 18.1645 25.4193 14.9297 24.9902Z" fill="#FF5200" stroke="black" stroke-width="4"/>
<path d="M35.8308 18.1746C39.812 21.5319 37.0749 28.7008 33.5914 32.3106C30.1078 35.9203 20.9759 35.1882 17.6665 33.0678C14.3571 30.9475 14.3571 22.1377 14.9294 19.4368C15.5017 16.7358 19.8562 14.8931 22.1454 14.3882C24.559 13.8581 31.8496 14.8174 35.8308 18.1746Z" fill="#00E3FF" stroke="black" stroke-width="4"/>
</g>
<g clip-path="url(#clip1_1199_8174)">
<path d="M70.5631 66.2525C69.7556 64.9476 69.4932 61.502 69.5538 59.3204C69.6143 57.1389 70.0181 55.8748 72.5819 54.6311C75.1458 53.3874 77.9721 54.1622 80.2533 54.835C82.5345 55.5078 84.2908 56.201 83.6852 58.9127C83.0796 61.6243 81.3232 65.1107 80.0514 67.068C78.7796 69.0253 71.3707 67.5573 70.5631 66.2525Z" fill="#FF5200" stroke="black" stroke-width="4"/>
<path d="M80.6574 66.8642C81.1217 65.6206 82.0706 63.2147 85.0987 61.1555C88.1269 59.0963 89.8832 59.5448 90.9532 60.34C92.6893 61.6448 94.5466 64.5604 94.3851 67.8837C94.2438 70.8196 93.84 71.2274 91.3569 72.573C88.4297 74.1633 84.6344 73.0011 82.8781 72.7769C81.1217 72.5526 80.1931 68.1079 80.6574 66.8642Z" fill="#FF5200" stroke="black" stroke-width="4"/>
<path d="M81.2632 74.4076C83.0195 73.1028 85.2402 73.4086 89.1364 73.9999C93.0326 74.5911 95.2533 75.8552 94.3852 79.097C93.5172 82.3387 92.3059 83.8678 89.5402 85.6212C86.7744 87.3746 84.4932 87.4766 82.2725 86.029C80.0519 84.5814 79.7894 81.0135 79.2444 79.7086C78.6993 78.4037 79.5068 75.7125 81.2632 74.4076Z" fill="#FF5200" stroke="black" stroke-width="4"/>
<path d="M78.6383 79.301C79.7083 81.7272 81.9289 85.6418 81.2627 88.8835C80.5965 92.1253 74.3989 93.4505 71.5726 93.369C68.7463 93.2874 66.1824 91.2078 65.3144 88.8835C64.4463 86.5593 67.7975 81.2175 68.5444 80.1165C69.2914 79.0156 77.5684 76.8748 78.6383 79.301Z" fill="#FF5200" stroke="black" stroke-width="4"/>
<path d="M69.1502 78.4855C68.8878 80.5855 67.3535 83.9903 63.6995 85.6214C60.4695 87.069 58.915 85.9069 56.8357 83.3787C54.7564 80.8505 53.6056 76.936 56.0282 74.4078C58.4507 71.8797 62.5488 72.7971 64.9108 72.7768C67.2728 72.7564 69.4127 76.3855 69.1502 78.4855Z" fill="#FF5200" stroke="black" stroke-width="4"/>
<path d="M65.1126 73.1846C62.4882 72.838 58.8544 71.6351 56.8357 69.1069C54.8169 66.5787 56.4319 62.603 58.2488 60.3399C60.0657 58.0768 62.8314 56.5477 65.1126 57.0778C67.3939 57.6079 69.3521 63.2758 70.3615 65.0292C71.3709 66.7826 67.7371 73.5312 65.1126 73.1846Z" fill="#FF5200" stroke="black" stroke-width="4"/>
<path d="M82.0703 67.6797C85.3004 70.3914 83.0797 76.1816 80.2534 79.0972C77.4271 82.0127 70.0182 81.4214 67.3332 79.7088C64.6483 77.9962 64.6483 70.8807 65.1126 68.6991C65.5769 66.5176 69.1098 65.0292 70.967 64.6214C72.9253 64.1933 78.8403 64.9681 82.0703 67.6797Z" fill="#00E3FF" stroke="black" stroke-width="4"/>
</g>
<defs>
<clipPath id="clip0_1199_8174">
<rect width="53" height="52" fill="white"/>
</clipPath>
<clipPath id="clip1_1199_8174">
<rect width="43" height="42" fill="white" transform="translate(53 53)"/>
</clipPath>
</defs>
</svg>
